<?xml version="1.0" encoding="UTF-8" standalone="yes"?>
<!-- Created with qrencode 4.1.1 (https://fukuchi.org/works/qrencode/index.html) -->
<svg viewBox="0 0 25 25" preserveAspectRatio="xMinYMin" version="1.1" xmlns="http://www.w3.org/2000/svg">
	<g id="QRcode">
		<rect x="0" y="0" width="25" height="25" fill="var(--r-background-color)"/>
		<path style="stroke:var(--r-main-color)" transform="translate(2,2.5)" d="M0,0h7M9,0h1M14,0h7M0,1h1M6,1h1M8,1h1M10,1h2M14,1h1M20,1h1M0,2h1M2,2h3M6,2h1M9,2h1M11,2h1M14,2h1M16,2h3M20,2h1M0,3h1M2,3h3M6,3h1M8,3h2M14,3h1M16,3h3M20,3h1M0,4h1M2,4h3M6,4h1M10,4h2M14,4h1M16,4h3M20,4h1M0,5h1M6,5h1M8,5h5M14,5h1M20,5h1M0,6h7M8,6h1M10,6h1M12,6h1M14,6h7M10,7h2M0,8h5M6,8h4M12,8h2M15,8h1M17,8h1M19,8h1M5,9h1M7,9h1M11,9h2M14,9h1M17,9h2M20,9h1M2,10h1M6,10h1M9,10h3M14,10h3M18,10h1M20,10h1M0,11h3M8,11h2M11,11h2M16,11h5M2,12h1M5,12h3M13,12h2M19,12h2M8,13h1M15,13h1M17,13h1M0,14h7M8,14h1M10,14h2M15,14h1M19,14h2M0,15h1M6,15h1M11,15h1M13,15h1M16,15h1M19,15h2M0,16h1M2,16h3M6,16h1M8,16h3M14,16h3M20,16h1M0,17h1M2,17h3M6,17h1M8,17h1M11,17h1M13,17h3M17,17h2M0,18h1M2,18h3M6,18h1M8,18h3M12,18h5M18,18h1M0,19h1M6,19h1M8,19h1M10,19h2M14,19h4M20,19h1M0,20h7M8,20h2M11,20h1M13,20h5"/>
	</g>
</svg>
