<!-- Created with Inkscape (http://www.inkscape.org/) --><svg xmlns:inkscape="http://www.inkscape.org/namespaces/inkscape" xmlns:sodipodi="http://sodipodi.sourceforge.net/DTD/sodipodi-0.dtd" xmlns:xlink="http://www.w3.org/1999/xlink" xmlns="http://www.w3.org/2000/svg" xmlns:svg="http://www.w3.org/2000/svg" width="138.77mm" height="119.60449mm" viewBox="0 0 138.77 119.60449" version="1.1" id="svg5" inkscape:version="1.1.1 (3bf5ae0d25, 2021-09-20)" sodipodi:docname="first.tar">
  <sodipodi:namedview id="namedview7" pagecolor="#191919" bordercolor="#999999" borderopacity="1" inkscape:pageshadow="0" inkscape:pageopacity="1" inkscape:pagecheckerboard="false" inkscape:document-units="mm" showgrid="false" inkscape:snap-global="false" inkscape:zoom="0.71172973" inkscape:cx="192.4888" inkscape:cy="303.48599" inkscape:window-width="1276" inkscape:window-height="780" inkscape:window-x="0" inkscape:window-y="18" inkscape:window-maximized="1" inkscape:current-layer="layer4" fit-margin-top="0" fit-margin-left="0" fit-margin-right="0" fit-margin-bottom="0"/>
  <defs id="defs2">
    <inkscape:path-effect effect="simplify" id="path-effect38717" is_visible="true" lpeversion="1" steps="1" threshold="0.000408163" smooth_angles="360" helper_size="0" simplify_individual_paths="false" simplify_just_coalesce="false"/>
    <inkscape:path-effect effect="simplify" id="path-effect37492" is_visible="true" lpeversion="1" steps="1" threshold="0.000408163" smooth_angles="360" helper_size="0" simplify_individual_paths="false" simplify_just_coalesce="false"/>
    <inkscape:path-effect effect="simplify" id="path-effect37435" is_visible="true" lpeversion="1" steps="1" threshold="0.000408163" smooth_angles="360" helper_size="0" simplify_individual_paths="false" simplify_just_coalesce="false"/>
    <inkscape:path-effect effect="simplify" id="path-effect37431" is_visible="true" lpeversion="1" steps="1" threshold="0.000408163" smooth_angles="360" helper_size="0" simplify_individual_paths="false" simplify_just_coalesce="false"/>
    <inkscape:path-effect effect="simplify" id="path-effect37427" is_visible="true" lpeversion="1" steps="1" threshold="0.000408163" smooth_angles="360" helper_size="0" simplify_individual_paths="false" simplify_just_coalesce="false"/>
    <inkscape:path-effect effect="simplify" id="path-effect37423" is_visible="true" lpeversion="1" steps="1" threshold="0.000408163" smooth_angles="360" helper_size="0" simplify_individual_paths="false" simplify_just_coalesce="false"/>
    <inkscape:path-effect effect="simplify" id="path-effect37419" is_visible="true" lpeversion="1" steps="1" threshold="0.000408163" smooth_angles="360" helper_size="0" simplify_individual_paths="false" simplify_just_coalesce="false"/>
    <inkscape:path-effect effect="simplify" id="path-effect37415" is_visible="true" lpeversion="1" steps="1" threshold="0.000408163" smooth_angles="360" helper_size="0" simplify_individual_paths="false" simplify_just_coalesce="false"/>
    <inkscape:path-effect effect="simplify" id="path-effect37411" is_visible="true" lpeversion="1" steps="1" threshold="0.000408163" smooth_angles="360" helper_size="0" simplify_individual_paths="false" simplify_just_coalesce="false"/>
    <inkscape:path-effect effect="simplify" id="path-effect37407" is_visible="true" lpeversion="1" steps="1" threshold="0.000408163" smooth_angles="360" helper_size="0" simplify_individual_paths="false" simplify_just_coalesce="false"/>
    <inkscape:path-effect effect="simplify" id="path-effect37403" is_visible="true" lpeversion="1" steps="1" threshold="0.000408163" smooth_angles="360" helper_size="0" simplify_individual_paths="false" simplify_just_coalesce="false"/>
    <inkscape:path-effect effect="simplify" id="path-effect37366" is_visible="true" lpeversion="1" steps="1" threshold="0.000408163" smooth_angles="360" helper_size="0" simplify_individual_paths="false" simplify_just_coalesce="false"/>
    <inkscape:path-effect effect="simplify" id="path-effect37362" is_visible="true" lpeversion="1" steps="1" threshold="0.000408163" smooth_angles="360" helper_size="0" simplify_individual_paths="false" simplify_just_coalesce="false"/>
    <inkscape:path-effect effect="simplify" id="path-effect37356" is_visible="true" lpeversion="1" steps="1" threshold="0.000408163" smooth_angles="360" helper_size="0" simplify_individual_paths="false" simplify_just_coalesce="false"/>
    <inkscape:path-effect effect="simplify" id="path-effect37352" is_visible="true" lpeversion="1" steps="1" threshold="0.000408163" smooth_angles="360" helper_size="0" simplify_individual_paths="false" simplify_just_coalesce="false"/>
    <inkscape:path-effect effect="simplify" id="path-effect37124" is_visible="true" lpeversion="1" steps="1" threshold="0.000408163" smooth_angles="360" helper_size="0" simplify_individual_paths="false" simplify_just_coalesce="false"/>
    <inkscape:path-effect effect="simplify" id="path-effect37120" is_visible="true" lpeversion="1" steps="1" threshold="0.000408163" smooth_angles="360" helper_size="0" simplify_individual_paths="false" simplify_just_coalesce="false"/>
    <inkscape:path-effect effect="simplify" id="path-effect37116" is_visible="true" lpeversion="1" steps="1" threshold="0.000408163" smooth_angles="360" helper_size="0" simplify_individual_paths="false" simplify_just_coalesce="false"/>
    <inkscape:path-effect effect="simplify" id="path-effect37112" is_visible="true" lpeversion="1" steps="1" threshold="0.000408163" smooth_angles="360" helper_size="0" simplify_individual_paths="false" simplify_just_coalesce="false"/>
    <inkscape:path-effect effect="simplify" id="path-effect37108" is_visible="true" lpeversion="1" steps="1" threshold="0.000408163" smooth_angles="360" helper_size="0" simplify_individual_paths="false" simplify_just_coalesce="false"/>
    <inkscape:path-effect effect="simplify" id="path-effect37104" is_visible="true" lpeversion="1" steps="1" threshold="0.000408163" smooth_angles="360" helper_size="0" simplify_individual_paths="false" simplify_just_coalesce="false"/>
    <inkscape:path-effect effect="simplify" id="path-effect37100" is_visible="true" lpeversion="1" steps="1" threshold="0.000408163" smooth_angles="360" helper_size="0" simplify_individual_paths="false" simplify_just_coalesce="false"/>
    <inkscape:path-effect effect="simplify" id="path-effect37096" is_visible="true" lpeversion="1" steps="1" threshold="0.000408163" smooth_angles="360" helper_size="0" simplify_individual_paths="false" simplify_just_coalesce="false"/>
    <inkscape:path-effect effect="spiro" id="path-effect28062" is_visible="true" lpeversion="1"/>
    <inkscape:path-effect effect="simplify" id="path-effect28060" is_visible="true" lpeversion="1" steps="1" threshold="0.000408163" smooth_angles="360" helper_size="0" simplify_individual_paths="false" simplify_just_coalesce="false"/>
    <inkscape:path-effect effect="simplify" id="path-effect28056" is_visible="true" lpeversion="1" steps="1" threshold="0.000408163" smooth_angles="360" helper_size="0" simplify_individual_paths="false" simplify_just_coalesce="false"/>
    <inkscape:path-effect effect="simplify" id="path-effect28052" is_visible="true" lpeversion="1" steps="1" threshold="0.000408163" smooth_angles="360" helper_size="0" simplify_individual_paths="false" simplify_just_coalesce="false"/>
    <inkscape:path-effect effect="simplify" id="path-effect28046" is_visible="true" lpeversion="1" steps="1" threshold="0.000408163" smooth_angles="360" helper_size="0" simplify_individual_paths="false" simplify_just_coalesce="false"/>
    <inkscape:path-effect effect="simplify" id="path-effect28042" is_visible="true" lpeversion="1" steps="1" threshold="0.000408163" smooth_angles="360" helper_size="0" simplify_individual_paths="false" simplify_just_coalesce="false"/>
    <inkscape:path-effect effect="simplify" id="path-effect28038" is_visible="true" lpeversion="1" steps="1" threshold="0.000408163" smooth_angles="360" helper_size="0" simplify_individual_paths="false" simplify_just_coalesce="false"/>
    <inkscape:path-effect effect="simplify" id="path-effect28034" is_visible="true" lpeversion="1" steps="1" threshold="0.000408163" smooth_angles="360" helper_size="0" simplify_individual_paths="false" simplify_just_coalesce="false"/>
    <inkscape:path-effect effect="simplify" id="path-effect25920" is_visible="true" lpeversion="1" steps="1" threshold="0.000408163" smooth_angles="360" helper_size="0" simplify_individual_paths="false" simplify_just_coalesce="false"/>
    <inkscape:path-effect effect="simplify" id="path-effect25916" is_visible="true" lpeversion="1" steps="1" threshold="0.000408163" smooth_angles="360" helper_size="0" simplify_individual_paths="false" simplify_just_coalesce="false"/>
    <inkscape:path-effect effect="simplify" id="path-effect25912" is_visible="true" lpeversion="1" steps="1" threshold="0.000408163" smooth_angles="360" helper_size="0" simplify_individual_paths="false" simplify_just_coalesce="false"/>
    <inkscape:path-effect effect="simplify" id="path-effect25908" is_visible="true" lpeversion="1" steps="1" threshold="0.000408163" smooth_angles="360" helper_size="0" simplify_individual_paths="false" simplify_just_coalesce="false"/>
    <inkscape:path-effect effect="simplify" id="path-effect14338" is_visible="true" lpeversion="1" steps="1" threshold="0.000408163" smooth_angles="360" helper_size="0" simplify_individual_paths="false" simplify_just_coalesce="false"/>
    <inkscape:path-effect effect="simplify" id="path-effect14334" is_visible="true" lpeversion="1" steps="1" threshold="0.000408163" smooth_angles="360" helper_size="0" simplify_individual_paths="false" simplify_just_coalesce="false"/>
    <inkscape:path-effect effect="simplify" id="path-effect14330" is_visible="true" lpeversion="1" steps="1" threshold="0.000408163" smooth_angles="360" helper_size="0" simplify_individual_paths="false" simplify_just_coalesce="false"/>
    <inkscape:path-effect effect="simplify" id="path-effect14326" is_visible="true" lpeversion="1" steps="1" threshold="0.000408163" smooth_angles="360" helper_size="0" simplify_individual_paths="false" simplify_just_coalesce="false"/>
    <inkscape:path-effect effect="simplify" id="path-effect14322" is_visible="true" lpeversion="1" steps="1" threshold="0.000408163" smooth_angles="360" helper_size="0" simplify_individual_paths="false" simplify_just_coalesce="false"/>
    <inkscape:path-effect effect="simplify" id="path-effect14318" is_visible="true" lpeversion="1" steps="1" threshold="0.000408163" smooth_angles="360" helper_size="0" simplify_individual_paths="false" simplify_just_coalesce="false"/>
    <inkscape:path-effect effect="simplify" id="path-effect14314" is_visible="true" lpeversion="1" steps="1" threshold="0.000408163" smooth_angles="360" helper_size="0" simplify_individual_paths="false" simplify_just_coalesce="false"/>
    <inkscape:path-effect effect="simplify" id="path-effect14310" is_visible="true" lpeversion="1" steps="1" threshold="0.000408163" smooth_angles="360" helper_size="0" simplify_individual_paths="false" simplify_just_coalesce="false"/>
    <inkscape:path-effect effect="simplify" id="path-effect4011" is_visible="true" lpeversion="1" steps="1" threshold="0.000408163" smooth_angles="360" helper_size="0" simplify_individual_paths="false" simplify_just_coalesce="false"/>
    <inkscape:path-effect effect="simplify" id="path-effect4007" is_visible="true" lpeversion="1" steps="1" threshold="0.000408163" smooth_angles="360" helper_size="0" simplify_individual_paths="false" simplify_just_coalesce="false"/>
    <inkscape:path-effect effect="simplify" id="path-effect4003" is_visible="true" lpeversion="1" steps="1" threshold="0.000408163" smooth_angles="360" helper_size="0" simplify_individual_paths="false" simplify_just_coalesce="false"/>
    <inkscape:path-effect effect="simplify" id="path-effect3999" is_visible="true" lpeversion="1" steps="1" threshold="0.000408163" smooth_angles="360" helper_size="0" simplify_individual_paths="false" simplify_just_coalesce="false"/>
    <inkscape:path-effect effect="simplify" id="path-effect3918" is_visible="true" lpeversion="1" steps="1" threshold="0.000408163" smooth_angles="360" helper_size="0" simplify_individual_paths="false" simplify_just_coalesce="false"/>
    <inkscape:path-effect effect="simplify" id="path-effect3914" is_visible="true" lpeversion="1" steps="1" threshold="0.000408163" smooth_angles="360" helper_size="0" simplify_individual_paths="false" simplify_just_coalesce="false"/>
    <inkscape:path-effect effect="simplify" id="path-effect3910" is_visible="true" lpeversion="1" steps="1" threshold="0.000408163" smooth_angles="360" helper_size="0" simplify_individual_paths="false" simplify_just_coalesce="false"/>
    <inkscape:path-effect effect="simplify" id="path-effect3906" is_visible="true" lpeversion="1" steps="1" threshold="0.000408163" smooth_angles="360" helper_size="0" simplify_individual_paths="false" simplify_just_coalesce="false"/>
    <inkscape:path-effect effect="simplify" id="path-effect3902" is_visible="true" lpeversion="1" steps="1" threshold="0.000408163" smooth_angles="360" helper_size="0" simplify_individual_paths="false" simplify_just_coalesce="false"/>
    <inkscape:path-effect effect="simplify" id="path-effect3898" is_visible="true" lpeversion="1" steps="1" threshold="0.000408163" smooth_angles="360" helper_size="0" simplify_individual_paths="false" simplify_just_coalesce="false"/>
    <inkscape:path-effect effect="simplify" id="path-effect3894" is_visible="true" lpeversion="1" steps="1" threshold="0.000408163" smooth_angles="360" helper_size="0" simplify_individual_paths="false" simplify_just_coalesce="false"/>
    <inkscape:path-effect effect="simplify" id="path-effect3890" is_visible="true" lpeversion="1" steps="1" threshold="0.000408163" smooth_angles="360" helper_size="0" simplify_individual_paths="false" simplify_just_coalesce="false"/>
    <inkscape:path-effect effect="simplify" id="path-effect3886" is_visible="true" lpeversion="1" steps="1" threshold="0.000408163" smooth_angles="360" helper_size="0" simplify_individual_paths="false" simplify_just_coalesce="false"/>
    <inkscape:path-effect effect="simplify" id="path-effect3882" is_visible="true" lpeversion="1" steps="1" threshold="0.000408163" smooth_angles="360" helper_size="0" simplify_individual_paths="false" simplify_just_coalesce="false"/>
    <inkscape:path-effect effect="simplify" id="path-effect3878" is_visible="true" lpeversion="1" steps="1" threshold="0.000408163" smooth_angles="360" helper_size="0" simplify_individual_paths="false" simplify_just_coalesce="false"/>
    <inkscape:path-effect effect="simplify" id="path-effect3874" is_visible="true" lpeversion="1" steps="1" threshold="0.000408163" smooth_angles="360" helper_size="0" simplify_individual_paths="false" simplify_just_coalesce="false"/>
    <inkscape:path-effect effect="simplify" id="path-effect3870" is_visible="true" lpeversion="1" steps="1" threshold="0.000408163" smooth_angles="360" helper_size="0" simplify_individual_paths="false" simplify_just_coalesce="false"/>
    <inkscape:path-effect effect="simplify" id="path-effect3866" is_visible="true" lpeversion="1" steps="1" threshold="0.000408163" smooth_angles="360" helper_size="0" simplify_individual_paths="false" simplify_just_coalesce="false"/>
    <inkscape:path-effect effect="simplify" id="path-effect3860" is_visible="true" lpeversion="1" steps="1" threshold="0.000408163" smooth_angles="360" helper_size="0" simplify_individual_paths="false" simplify_just_coalesce="false"/>
    <inkscape:path-effect effect="simplify" id="path-effect3856" is_visible="true" lpeversion="1" steps="1" threshold="0.000408163" smooth_angles="360" helper_size="0" simplify_individual_paths="false" simplify_just_coalesce="false"/>
    <inkscape:path-effect effect="simplify" id="path-effect3852" is_visible="true" lpeversion="1" steps="1" threshold="0.000408163" smooth_angles="360" helper_size="0" simplify_individual_paths="false" simplify_just_coalesce="false"/>
    <inkscape:path-effect effect="simplify" id="path-effect3848" is_visible="true" lpeversion="1" steps="1" threshold="0.000408163" smooth_angles="360" helper_size="0" simplify_individual_paths="false" simplify_just_coalesce="false"/>
    <inkscape:path-effect effect="simplify" id="path-effect3639" is_visible="true" lpeversion="1" steps="1" threshold="0.000408163" smooth_angles="360" helper_size="0" simplify_individual_paths="false" simplify_just_coalesce="false"/>
    <inkscape:path-effect effect="simplify" id="path-effect3635" is_visible="true" lpeversion="1" steps="1" threshold="0.000408163" smooth_angles="360" helper_size="0" simplify_individual_paths="false" simplify_just_coalesce="false"/>
    <inkscape:path-effect effect="simplify" id="path-effect3631" is_visible="true" lpeversion="1" steps="1" threshold="0.000408163" smooth_angles="360" helper_size="0" simplify_individual_paths="false" simplify_just_coalesce="false"/>
    <inkscape:path-effect effect="simplify" id="path-effect3627" is_visible="true" lpeversion="1" steps="1" threshold="0.000408163" smooth_angles="360" helper_size="0" simplify_individual_paths="false" simplify_just_coalesce="false"/>
    <inkscape:path-effect effect="simplify" id="path-effect3174" is_visible="true" lpeversion="1" steps="1" threshold="0.000408163" smooth_angles="360" helper_size="0" simplify_individual_paths="false" simplify_just_coalesce="false"/>
    <inkscape:path-effect effect="simplify" id="path-effect3170" is_visible="true" lpeversion="1" steps="1" threshold="0.000408163" smooth_angles="360" helper_size="0" simplify_individual_paths="false" simplify_just_coalesce="false"/>
    <inkscape:path-effect effect="simplify" id="path-effect3166" is_visible="true" lpeversion="1" steps="1" threshold="0.000408163" smooth_angles="360" helper_size="0" simplify_individual_paths="false" simplify_just_coalesce="false"/>
    <inkscape:path-effect effect="simplify" id="path-effect3162" is_visible="true" lpeversion="1" steps="1" threshold="0.000408163" smooth_angles="360" helper_size="0" simplify_individual_paths="false" simplify_just_coalesce="false"/>
    <inkscape:path-effect effect="simplify" id="path-effect3158" is_visible="true" lpeversion="1" steps="1" threshold="0.000408163" smooth_angles="360" helper_size="0" simplify_individual_paths="false" simplify_just_coalesce="false"/>
    <inkscape:path-effect effect="simplify" id="path-effect3154" is_visible="true" lpeversion="1" steps="1" threshold="0.000408163" smooth_angles="360" helper_size="0" simplify_individual_paths="false" simplify_just_coalesce="false"/>
    <inkscape:path-effect effect="simplify" id="path-effect3150" is_visible="true" lpeversion="1" steps="1" threshold="0.000408163" smooth_angles="360" helper_size="0" simplify_individual_paths="false" simplify_just_coalesce="false"/>
    <inkscape:path-effect effect="simplify" id="path-effect3146" is_visible="true" lpeversion="1" steps="1" threshold="0.000408163" smooth_angles="360" helper_size="0" simplify_individual_paths="false" simplify_just_coalesce="false"/>
    <inkscape:path-effect effect="simplify" id="path-effect3142" is_visible="true" lpeversion="1" steps="1" threshold="0.000408163" smooth_angles="360" helper_size="0" simplify_individual_paths="false" simplify_just_coalesce="false"/>
    <inkscape:path-effect effect="simplify" id="path-effect3138" is_visible="true" lpeversion="1" steps="1" threshold="0.000408163" smooth_angles="360" helper_size="0" simplify_individual_paths="false" simplify_just_coalesce="false"/>
    <inkscape:path-effect effect="simplify" id="path-effect3134" is_visible="true" lpeversion="1" steps="1" threshold="0.000408163" smooth_angles="360" helper_size="0" simplify_individual_paths="false" simplify_just_coalesce="false"/>
    <inkscape:path-effect effect="simplify" id="path-effect3130" is_visible="true" lpeversion="1" steps="1" threshold="0.000408163" smooth_angles="360" helper_size="0" simplify_individual_paths="false" simplify_just_coalesce="false"/>
    <inkscape:path-effect effect="simplify" id="path-effect3126" is_visible="true" lpeversion="1" steps="1" threshold="0.000408163" smooth_angles="360" helper_size="0" simplify_individual_paths="false" simplify_just_coalesce="false"/>
    <inkscape:path-effect effect="simplify" id="path-effect3122" is_visible="true" lpeversion="1" steps="1" threshold="0.000408163" smooth_angles="360" helper_size="0" simplify_individual_paths="false" simplify_just_coalesce="false"/>
    <inkscape:path-effect effect="simplify" id="path-effect3118" is_visible="true" lpeversion="1" steps="1" threshold="0.000408163" smooth_angles="360" helper_size="0" simplify_individual_paths="false" simplify_just_coalesce="false"/>
    <inkscape:path-effect effect="simplify" id="path-effect3114" is_visible="true" lpeversion="1" steps="1" threshold="0.000408163" smooth_angles="360" helper_size="0" simplify_individual_paths="false" simplify_just_coalesce="false"/>
    <inkscape:path-effect effect="simplify" id="path-effect3110" is_visible="true" lpeversion="1" steps="1" threshold="0.000408163" smooth_angles="360" helper_size="0" simplify_individual_paths="false" simplify_just_coalesce="false"/>
    <inkscape:path-effect effect="simplify" id="path-effect3106" is_visible="true" lpeversion="1" steps="1" threshold="0.000408163" smooth_angles="360" helper_size="0" simplify_individual_paths="false" simplify_just_coalesce="false"/>
    <inkscape:path-effect effect="simplify" id="path-effect3102" is_visible="true" lpeversion="1" steps="1" threshold="0.000408163" smooth_angles="360" helper_size="0" simplify_individual_paths="false" simplify_just_coalesce="false"/>
    <inkscape:path-effect effect="simplify" id="path-effect3098" is_visible="true" lpeversion="1" steps="1" threshold="0.000408163" smooth_angles="360" helper_size="0" simplify_individual_paths="false" simplify_just_coalesce="false"/>
    <inkscape:path-effect effect="simplify" id="path-effect3094" is_visible="true" lpeversion="1" steps="1" threshold="0.000408163" smooth_angles="360" helper_size="0" simplify_individual_paths="false" simplify_just_coalesce="false"/>
    <inkscape:path-effect effect="simplify" id="path-effect3090" is_visible="true" lpeversion="1" steps="1" threshold="0.000408163" smooth_angles="360" helper_size="0" simplify_individual_paths="false" simplify_just_coalesce="false"/>
    <inkscape:path-effect effect="simplify" id="path-effect3086" is_visible="true" lpeversion="1" steps="1" threshold="0.000408163" smooth_angles="360" helper_size="0" simplify_individual_paths="false" simplify_just_coalesce="false"/>
    <inkscape:path-effect effect="simplify" id="path-effect3082" is_visible="true" lpeversion="1" steps="1" threshold="0.000408163" smooth_angles="360" helper_size="0" simplify_individual_paths="false" simplify_just_coalesce="false"/>
    <inkscape:path-effect effect="simplify" id="path-effect3078" is_visible="true" lpeversion="1" steps="1" threshold="0.000408163" smooth_angles="360" helper_size="0" simplify_individual_paths="false" simplify_just_coalesce="false"/>
    <inkscape:path-effect effect="simplify" id="path-effect3074" is_visible="true" lpeversion="1" steps="1" threshold="0.000408163" smooth_angles="360" helper_size="0" simplify_individual_paths="false" simplify_just_coalesce="false"/>
    <inkscape:path-effect effect="simplify" id="path-effect3068" is_visible="true" lpeversion="1" steps="1" threshold="0.000408163" smooth_angles="360" helper_size="0" simplify_individual_paths="false" simplify_just_coalesce="false"/>
    <inkscape:path-effect effect="simplify" id="path-effect3064" is_visible="true" lpeversion="1" steps="1" threshold="0.000408163" smooth_angles="360" helper_size="0" simplify_individual_paths="false" simplify_just_coalesce="false"/>
    <inkscape:path-effect effect="simplify" id="path-effect1534" is_visible="true" lpeversion="1" steps="1" threshold="0.000408163" smooth_angles="360" helper_size="0" simplify_individual_paths="false" simplify_just_coalesce="false"/>
    <inkscape:path-effect effect="simplify" id="path-effect1299" is_visible="true" lpeversion="1" steps="1" threshold="0.000408163" smooth_angles="360" helper_size="0" simplify_individual_paths="false" simplify_just_coalesce="false"/>
    <inkscape:path-effect effect="simplify" id="path-effect1262" is_visible="true" lpeversion="1" steps="1" threshold="0.000408163" smooth_angles="360" helper_size="0" simplify_individual_paths="false" simplify_just_coalesce="false"/>
    <inkscape:path-effect effect="simplify" id="path-effect340" is_visible="true" lpeversion="1" steps="1" threshold="0.000408163" smooth_angles="360" helper_size="0" simplify_individual_paths="false" simplify_just_coalesce="false"/>
    <inkscape:path-effect effect="simplify" id="path-effect155" is_visible="true" lpeversion="1" steps="1" threshold="0.000408163" smooth_angles="360" helper_size="0" simplify_individual_paths="false" simplify_just_coalesce="false"/>
    <inkscape:path-effect effect="simplify" id="path-effect98" is_visible="true" lpeversion="1" steps="1" threshold="0.000408163" smooth_angles="360" helper_size="0" simplify_individual_paths="false" simplify_just_coalesce="false"/>
    <inkscape:path-effect effect="simplify" id="path-effect94" is_visible="true" lpeversion="1" steps="1" threshold="0.000408163" smooth_angles="360" helper_size="0" simplify_individual_paths="false" simplify_just_coalesce="false"/>
    <inkscape:path-effect effect="simplify" id="path-effect89" is_visible="true" lpeversion="1" steps="1" threshold="0.000408163" smooth_angles="360" helper_size="0" simplify_individual_paths="false" simplify_just_coalesce="false"/>
    <inkscape:path-effect effect="simplify" id="path-effect85" is_visible="true" lpeversion="1" steps="1" threshold="0.000408163" smooth_angles="360" helper_size="0" simplify_individual_paths="false" simplify_just_coalesce="false"/>
    <inkscape:path-effect effect="simplify" id="path-effect81" is_visible="true" lpeversion="1" steps="1" threshold="0.000408163" smooth_angles="360" helper_size="0" simplify_individual_paths="false" simplify_just_coalesce="false"/>
    <inkscape:path-effect effect="simplify" id="path-effect77" is_visible="true" lpeversion="1" steps="1" threshold="0.000408163" smooth_angles="360" helper_size="0" simplify_individual_paths="false" simplify_just_coalesce="false"/>
    <inkscape:path-effect effect="simplify" id="path-effect37916" is_visible="true" lpeversion="1" steps="1" threshold="0.000408163" smooth_angles="360" helper_size="0" simplify_individual_paths="false" simplify_just_coalesce="false"/>
    <inkscape:path-effect effect="simplify" id="path-effect109811" is_visible="true" lpeversion="1" steps="1" threshold="0.000408163" smooth_angles="360" helper_size="0" simplify_individual_paths="false" simplify_just_coalesce="false"/>
    <inkscape:path-effect effect="simplify" id="path-effect109813" is_visible="true" lpeversion="1" steps="1" threshold="0.000408163" smooth_angles="360" helper_size="0" simplify_individual_paths="false" simplify_just_coalesce="false"/>
    <inkscape:path-effect effect="simplify" id="path-effect109815" is_visible="true" lpeversion="1" steps="1" threshold="0.000408163" smooth_angles="360" helper_size="0" simplify_individual_paths="false" simplify_just_coalesce="false"/>
    <inkscape:path-effect effect="simplify" id="path-effect109817" is_visible="true" lpeversion="1" steps="1" threshold="0.000408163" smooth_angles="360" helper_size="0" simplify_individual_paths="false" simplify_just_coalesce="false"/>
  </defs>
  <g inkscape:groupmode="layer" id="layer2" inkscape:label="02" style="display:inline" transform="translate(-19.254787,-96.924118)">
    <path style="fill:none;stroke:#ffffff;stroke-width:0.264583px;stroke-linecap:butt;stroke-linejoin:miter;stroke-opacity:1" d="m 50.445034,126.39588 c -0.405529,0.19941 -0.82254,0.37685 -1.210705,0.61045 -0.97744,0.58822 -1.85602,1.32202 -2.717841,2.06494 -0.62485,0.53864 -1.249901,1.07715 -1.892259,1.59514 -3.280457,2.64533 -6.682045,5.14194 -9.894209,7.86969 -0.49593,0.42114 -0.985454,0.84982 -1.485559,1.26605 -0.738626,0.61475 -1.479253,1.23114 -2.276316,1.76903 -0.32338,0.21823 -0.645132,0.45182 -1.011828,0.5889 -0.08405,0.0314 -0.266923,0.16521 -0.260474,0.0758 0.0031,-0.0436 0.0465,-0.0757 0.06479,-0.11509 0.03195,-0.0689 0.05262,-0.14273 0.07945,-0.21391 0.149217,-0.39594 0.328482,-0.7799 0.467494,-1.17994 0.281996,-0.81151 0.489231,-1.64811 0.811688,-2.44593 0.105174,-0.26022 0.219249,-0.52065 0.392398,-0.74418 0.128199,-0.1655 0.239529,-0.35241 0.406554,-0.47842 0.02476,-0.0187 0.09976,-0.092 0.09438,-0.0538 -0.04092,0.28994 -0.152837,0.56428 -0.272598,0.82917 -0.302694,0.66951 -0.670518,1.30682 -1.03733,1.94259 -0.417295,0.72327 -0.866102,1.42942 -1.246368,2.17312 -0.123059,0.24067 -0.261457,0.47918 -0.327862,0.74236 -0.01604,0.0636 -0.07416,0.15874 -0.01869,0.1964 0.04284,0.0291 0.103398,-0.004 0.147413,-0.0212 0.253361,-0.099 0.496814,-0.2212 0.741626,-0.33925 0.331422,-0.15982 0.666156,-0.3128 1.00654,-0.45283 1.051,-0.43237 2.120193,-0.82021 3.203637,-1.16348 0.992282,-0.31439 1.994211,-0.59716 2.997518,-0.87395" id="path3088" inkscape:path-effect="#path-effect3090" inkscape:original-d="m 50.445034,126.39588 c -0.360143,0.1779 -0.732798,0.33244 -1.080428,0.53369 -1.591892,0.9216 -3.045399,2.36806 -4.464929,3.51457 -3.356705,2.71111 -6.755677,5.36564 -10.127427,8.05746 -0.431083,0.34415 -3.974774,3.53783 -5.063715,3.73585 -0.05158,0.009 0.04851,-0.0934 0.06509,-0.14319 0.134083,-0.40222 0.322376,-0.78642 0.468625,-1.18453 0.300471,-0.81793 0.499978,-1.67658 0.820084,-2.48623 0.284429,-0.71942 0.3468,-0.78497 0.833106,-1.34074 0.03091,-0.0353 0.122801,-0.12469 0.117153,-0.0781 -0.156975,1.29498 -3.048659,5.30055 -2.90285,5.88364 0.02408,0.0963 0.990251,-0.43553 1.692243,-0.72895 0.559065,-0.23367 1.123588,-0.45462 1.692249,-0.66386 1.542764,-0.56767 3.128962,-1.02112 4.712242,-1.4579"/>
    <path style="fill:none;stroke:#ffffff;stroke-width:0.264583px;stroke-linecap:butt;stroke-linejoin:miter;stroke-opacity:1" d="m 61.130869,125.52911 c 0.109108,2.63103 -0.1017,5.26585 -0.475197,7.86948 -0.357799,2.4942 -0.971853,4.94368 -1.379002,7.42932 -0.03595,0.21945 -0.01239,0.44242 -0.0041,0.66311 0.0067,0.17986 0.01438,0.36396 -0.03398,0.53934 -0.03091,0.11212 -0.112247,0.19921 -0.205291,0.27251 -0.03437,0.0271 -0.08069,0.0252 -0.110007,-0.0114 -0.06774,-0.0845 -0.104521,-0.189 -0.138321,-0.29038 -0.118575,-0.35564 -0.200101,-0.72236 -0.275869,-1.08903 -0.192236,-0.9303 -0.344945,-1.86825 -0.487814,-2.80723 -0.07024,-0.46166 -0.133101,-0.92438 -0.195693,-1.38713 -0.02807,-0.20753 -0.09094,-0.4135 -0.083,-0.62278 7.37e-4,-0.0194 0.0076,0.0274 0.0091,0.0366 0.315241,1.8707 0.422727,3.77148 0.794741,5.63354 0.06265,0.31358 0.11431,0.63323 0.237008,0.92989 0.0511,0.12356 0.112152,0.24911 0.214395,0.33908 0.06488,0.0571 0.158261,0.0836 0.241304,0.0568 0.0944,-0.0305 0.182761,-0.0779 0.267832,-0.12824 0.326327,-0.19311 0.612274,-0.44628 0.882323,-0.7104 0.479509,-0.46899 0.900832,-0.99211 1.345223,-1.49344 1.092039,-1.23196 2.059695,-2.5664 3.015157,-3.90495" id="path3092" inkscape:path-effect="#path-effect3094" inkscape:original-d="m 61.130869,125.52911 c 0.213228,5.18104 -0.796589,10.23831 -1.848453,15.26883 -0.105722,0.50562 0.18841,1.3195 -0.28638,1.52297 -0.346183,0.14836 -0.999133,-4.35407 -1.054399,-4.76418 -0.06196,-0.45977 -0.258522,-1.8374 -0.18224,-1.37979 0.306547,1.83897 0.410927,3.72095 0.781035,5.55821 0.100869,0.50073 0.270936,1.53827 0.741984,1.34075 0.855363,-0.35869 1.911868,-1.70506 2.486297,-2.35606 1.087393,-1.23234 2.028479,-2.53259 2.980952,-3.86602"/>
    <path inkscape:path-effect="#path-effect3106" inkscape:original-d="m 70.270327,124.99006 c 3.949941,4.77206 8.800729,8.66835 13.472869,12.69147 0.902822,0.77741 1.787665,1.56616 2.577417,2.4602 0.114401,0.12951 0.152628,0.40352 0.325427,0.40352 0.0024,0 -0.321424,-0.68932 -0.585769,-1.3147 -0.534437,-1.26437 -1.067946,-2.53352 -1.562071,-3.81395 -0.398171,-1.0318 -0.369451,-0.95757 -0.559744,-1.86142 -0.02262,-0.1075 -0.07362,-0.43315 -0.05208,-0.32543 0.330444,1.65193 1.024507,3.30822 1.549051,4.90738 0.10374,0.31626 0.294203,0.9092 0.455605,1.23661 0.09741,0.1976 0.57088,0.53977 0.351477,0.55972 -0.944501,0.0859 -2.101757,-0.099 -3.059059,-0.10413 -1.455947,-0.008 -2.810068,-0.13309 -3.983286,-1.04136" style="fill:none;stroke:#ffffff;stroke-width:0.264583px;stroke-linecap:butt;stroke-linejoin:miter;stroke-opacity:1" d="m 70.270327,124.99006 c 2.155244,2.60445 4.592541,4.95929 7.11207,7.20739 2.189709,1.95381 4.45341,3.82234 6.666813,5.74885 0.798534,0.69503 1.625935,1.37549 2.281911,2.20798 0.0838,0.10635 0.113993,0.24585 0.207259,0.34613 0.02322,0.025 0.115289,0.0607 0.104381,0.037 -0.235144,-0.51125 -0.46367,-1.02551 -0.682677,-1.54394 -0.58731,-1.39026 -1.168377,-2.78371 -1.698368,-4.19703 -0.08201,-0.21869 -0.151292,-0.44222 -0.20169,-0.67042 -0.04718,-0.21362 -0.09873,-0.42655 -0.135236,-0.64224 -0.0155,-0.0916 -0.06154,-0.3663 -0.04329,-0.27533 0.234276,1.168 0.629365,2.29502 1.028771,3.41466 0.208528,0.58456 0.408838,1.17197 0.606069,1.76049 0.104608,0.31214 0.220736,0.62024 0.344115,0.92582 0.02882,0.0714 0.07308,0.13455 0.122724,0.19322 0.09347,0.11047 0.191253,0.21665 0.289269,0.32365 0.02699,0.0295 0.04646,0.0985 -0.01137,0.10442 -0.292468,0.0301 -0.587394,0.0296 -0.880995,0.0203 -0.778458,-0.0248 -1.553339,-0.11366 -2.33283,-0.12273 -0.767878,-0.009 -1.543696,-0.0558 -2.286951,-0.26319 -0.563163,-0.15713 -1.098344,-0.41724 -1.560141,-0.77706" id="path3104"/>
    <path style="fill:none;stroke:#ffffff;stroke-width:0.264583px;stroke-linecap:butt;stroke-linejoin:miter;stroke-opacity:1" d="m 28.198533,144.91893 c -0.292336,0.022 -0.586987,0.0756 -0.853622,0.20223 -0.20593,0.0978 -0.386727,0.24406 -0.53416,0.41733 -0.189918,0.2232 -0.333754,0.48135 -0.458725,0.74509 -0.203244,0.42892 -0.367185,0.87604 -0.499236,1.33167 -0.156181,0.53889 -0.274212,1.09164 -0.310425,1.65233 -0.02551,0.395 -0.01399,0.79708 0.08534,1.182 0.07447,0.2886 0.20701,0.5668 0.412365,0.78605 0.21496,0.2295 0.496823,0.39048 0.797832,0.47782 0.383469,0.11126 0.790394,0.11615 1.184005,0.0659 0.531132,-0.0679 1.047548,-0.22677 1.539009,-0.43623 0.490963,-0.20925 0.964305,-0.46382 1.397709,-0.77572 0.199778,-0.14377 0.396576,-0.29487 0.565261,-0.47463 0.246024,-0.26218 0.401853,-0.59716 0.493853,-0.94171 0.123903,-0.46403 0.146447,-0.95126 0.09907,-1.42771 -0.05579,-0.56099 -0.202682,-1.11597 -0.456206,-1.62045 -0.192158,-0.38237 -0.448151,-0.73969 -0.784679,-1.00795 -0.249468,-0.19886 -0.545522,-0.34884 -0.862525,-0.3948 -0.216353,-0.0314 -0.436063,-0.006 -0.650152,0.0297 -0.317298,0.0536 -0.628701,0.14112 -0.949025,0.17627 -0.07162,0.008 -0.143617,0.0129 -0.21569,0.0129 z" id="path3116" inkscape:path-effect="#path-effect3118" inkscape:original-d="m 28.198533,144.91893 c -0.938549,0.0697 -1.372553,0.4308 -1.783362,1.2366 -0.590735,1.15872 -1.43335,3.93088 -0.390521,5.06357 1.309299,1.42213 4.395364,-0.0415 5.454235,-1.0804 1.303705,-1.27908 0.593963,-5.01631 -1.405867,-5.42804 -0.559054,-0.1151 -1.298982,0.20827 -1.874485,0.20827 z"/>
    <path style="fill:none;stroke:#ffffff;stroke-width:0.264583px;stroke-linecap:butt;stroke-linejoin:miter;stroke-opacity:1" d="m 28.055343,151.89599 c 0.07576,0.76741 0.04217,1.54105 -0.02862,2.30741 -0.135852,1.47082 -0.413875,2.9252 -0.527777,4.39827 -0.05751,0.74379 -0.07723,1.49502 0.01994,2.23636 0.03745,0.28575 0.09278,0.56946 0.171978,0.84667" id="path3120" inkscape:path-effect="#path-effect3122" inkscape:original-d="m 28.055343,151.89599 c 0.305565,3.05208 -1.159376,7.00664 -0.364482,9.78871"/>
    <path style="fill:none;stroke:#ffffff;stroke-width:0.264583px;stroke-linecap:butt;stroke-linejoin:miter;stroke-opacity:1" d="m 32.845696,154.87685 c -0.4801,0.17577 -0.962883,0.34409 -1.443421,0.51863 -0.245945,0.0893 -0.491299,0.18311 -0.722294,0.30709 -0.242441,0.13012 -0.477166,0.27392 -0.713437,0.41476 -0.57677,0.3438 -1.072954,1.06854 -1.741979,1.01145 -0.0866,-0.007 -0.169477,-0.0373 -0.249839,-0.0685 -0.255342,-0.0992 -0.500417,-0.22284 -0.741672,-0.35197 -0.527006,-0.28207 -1.040192,-0.59026 -1.535592,-0.92465 -0.357786,-0.2415 -0.712524,-0.4903 -1.035643,-0.7771 -0.150801,-0.13385 -0.303438,-0.27037 -0.418061,-0.43722 -0.04939,-0.0719 -0.09985,-0.15052 -0.105748,-0.23962 -0.0017,-0.0263 0.0016,-0.0533 0.01216,-0.0777" id="path3124" inkscape:path-effect="#path-effect3126" inkscape:original-d="m 32.845696,154.87685 c -2.830254,1.03101 -1.260108,0.3448 -4.621131,2.25193 -0.562649,-0.0296 -4.331733,-2.27636 -4.074399,-2.87673"/>
    <path style="fill:none;stroke:#ffffff;stroke-width:0.264583px;stroke-linecap:butt;stroke-linejoin:miter;stroke-opacity:1" d="m 27.768961,161.50246 c 0.265076,0.0838 0.504983,0.23316 0.718884,0.40845 0.281705,0.23086 0.52535,0.50468 0.745674,0.7937 0.314665,0.41277 0.585333,0.85719 0.835084,1.31163 0.199113,0.3623 0.381238,0.73353 0.563815,1.10434 0.03867,0.0785 0.07733,0.15709 0.117495,0.23488" id="path3128" inkscape:path-effect="#path-effect3130" inkscape:original-d="m 27.768961,161.50246 c 1.45306,0.45779 2.587924,3.09315 2.980952,3.853"/>
    <path style="fill:none;stroke:#ffffff;stroke-width:0.264583px;stroke-linecap:butt;stroke-linejoin:miter;stroke-opacity:1" d="m 27.495601,161.50246 c -0.619607,0.5966 -1.275527,1.15543 -1.872041,1.77591 -0.279049,0.29026 -0.544833,0.59403 -0.783479,0.91859" id="path3132" inkscape:path-effect="#path-effect3134" inkscape:original-d="m 27.495601,161.50246 c -0.904016,0.87071 -1.912655,1.68424 -2.65552,2.6945"/>
    <path style="fill:none;stroke:#ffffff;stroke-width:0.264583px;stroke-linecap:butt;stroke-linejoin:miter;stroke-opacity:1" d="m 60.453965,144.92429 c -0.37635,-0.25487 -0.788466,-0.46745 -1.233428,-0.57158 -0.347792,-0.0814 -0.713885,-0.0845 -1.062462,-0.004 -0.416898,0.0958 -0.800456,0.30403 -1.139031,0.56143 -0.194961,0.14822 -0.381381,0.30866 -0.550388,0.48589 -0.335899,0.35225 -0.571583,0.79145 -0.717894,1.25344 -0.163275,0.51555 -0.224849,1.0636 -0.177675,1.60234 0.0212,0.24211 0.0659,0.48255 0.141154,0.71394 0.126185,0.38801 0.308934,0.756 0.522982,1.10256 0.232712,0.37678 0.49931,0.73495 0.813233,1.04798 0.192517,0.19197 0.402811,0.37063 0.646148,0.49555 0.248777,0.12771 0.528034,0.19088 0.807148,0.19506 0.355644,0.005 0.706345,-0.0737 1.044806,-0.17613 0.203882,-0.0617 0.40723,-0.12587 0.606676,-0.20064 0.726637,-0.27241 1.368042,-0.74742 1.877654,-1.32881 0.463542,-0.52883 0.831677,-1.14666 1.045675,-1.81773 0.153236,-0.48053 0.228981,-0.99355 0.161908,-1.49641 -0.05166,-0.38734 -0.202773,-0.76483 -0.455723,-1.06562 -0.25367,-0.30165 -0.60382,-0.51027 -0.975915,-0.63214 -0.435463,-0.14262 -0.899115,-0.1796 -1.354868,-0.1647 z" id="path3136" inkscape:path-effect="#path-effect3138" inkscape:original-d="m 60.453965,144.92429 c -1.391084,-0.94346 -2.622624,-0.85756 -3.918196,0.40353 -0.832974,0.8108 -1.123172,2.19423 -0.911206,3.29327 0.176059,0.91287 0.962644,2.15057 1.718281,2.75958 0.855583,0.68956 1.763037,0.40748 2.694569,0.0911 3.372326,-1.14529 4.97154,-6.70189 0.416552,-6.5475 z"/>
    <path style="fill:none;stroke:#ffffff;stroke-width:0.264583px;stroke-linecap:butt;stroke-linejoin:miter;stroke-opacity:1" d="m 58.956985,152.04453 c 0.03965,-0.0486 0.0848,-0.15295 0.150755,-0.12588 0.06345,0.026 0.06871,0.11074 0.07444,0.16905 0.01975,0.20112 0.0062,0.40383 -0.01062,0.60455 -0.04837,0.57561 -0.13144,1.14761 -0.217446,1.71858 -0.167872,1.11445 -0.371347,2.22336 -0.531981,3.33886 -0.04513,0.31338 -0.111631,0.62612 -0.115467,0.94291 -9.02e-4,0.0745 -0.03527,0.16505 0.01133,0.2252 0.02513,0.0324 0.05504,-0.0209 0.06703,-0.0409 0.02475,-0.0411 0.07079,-0.17622 0.06428,-0.12871 -0.111163,0.8109 -0.378002,1.59512 -0.741769,2.32652 -0.443469,0.89165 -1.025511,1.70671 -1.653406,2.47672" id="path3148" inkscape:path-effect="#path-effect3150" inkscape:original-d="m 58.956985,152.04453 c 0.919712,-1.33176 -1.214618,8.31036 -0.507675,6.70371 -0.260496,1.88569 -1.311272,3.47396 -2.395175,4.80324"/>
    <path style="fill:none;stroke:#ffffff;stroke-width:0.264583px;stroke-linecap:butt;stroke-linejoin:miter;stroke-opacity:1" d="m 58.657585,159.04763 c 0.181443,0.20181 0.320464,0.4389 0.424879,0.68869 0.130856,0.31305 0.210415,0.64445 0.276334,0.9764 0.0727,0.36611 0.125496,0.73631 0.214035,1.09915 0.06439,0.26389 0.147274,0.52628 0.282338,0.76333" id="path3152" inkscape:path-effect="#path-effect3154" inkscape:original-d="m 58.657585,159.04763 c 0.876546,0.97788 0.64825,2.56626 1.197586,3.52757"/>
    <path style="fill:none;stroke:#ffffff;stroke-width:0.264583px;stroke-linecap:butt;stroke-linejoin:miter;stroke-opacity:1" d="m 64.528371,152.35694 c -1.042563,0.46694 -2.115148,0.87012 -3.125377,1.40678 -0.564562,0.29991 -0.960457,1.02365 -1.599885,1.05342 -0.683995,0.0318 -1.37206,-0.043 -2.034758,-0.2151 -0.766012,-0.19897 -1.492696,-0.52655 -2.182431,-0.91097 -0.431526,-0.24051 -0.85029,-0.50321 -1.263084,-0.7744" id="path3156" inkscape:path-effect="#path-effect3158" inkscape:original-d="m 64.528371,152.35694 c -1.616366,0.72411 -3.349085,1.31136 -4.725262,2.4602 -2.107789,0.0948 -3.765718,-0.77379 -5.480273,-1.90047"/>
    <path style="fill:none;stroke:#ffffff;stroke-width:0.264583px;stroke-linecap:butt;stroke-linejoin:miter;stroke-opacity:1" d="m 87.544232,143.82551 c -0.491581,0.0448 -0.982654,0.15879 -1.423768,0.38588 -0.353099,0.18178 -0.664084,0.44179 -0.911881,0.75185 -0.312671,0.39124 -0.528158,0.85099 -0.68738,1.32325 -0.10106,0.29975 -0.186434,0.60513 -0.249964,0.915 -0.119832,0.58448 -0.142021,1.19703 -3.66e-4,1.78013 0.118128,0.48626 0.362591,0.94184 0.708746,1.30435 0.402976,0.42202 0.935253,0.70856 1.498318,0.85212 0.868808,0.22152 1.808787,0.11848 2.622607,-0.25224 0.603558,-0.27494 1.134615,-0.70473 1.532467,-1.23536 0.480062,-0.64028 0.776428,-1.40932 0.890537,-2.1989 0.09459,-0.65451 0.07097,-1.33128 -0.109856,-1.96917 -0.137457,-0.48489 -0.372194,-0.94989 -0.724668,-1.31471 -0.278177,-0.28792 -0.634972,-0.49854 -1.022318,-0.60157 -0.457806,-0.12177 -0.943822,-0.0936 -1.4009,0.0169 -0.246954,0.0598 -0.48781,0.14321 -0.721574,0.24243 z" id="path3160" inkscape:path-effect="#path-effect3162" inkscape:original-d="m 87.544232,143.82551 c -1.975916,0.18072 -2.78213,1.33747 -3.228281,3.17612 -1.046472,4.31266 3.879995,5.49006 6.144143,2.86372 2.197471,-2.54901 1.117545,-7.75261 -2.915862,-6.03984 z"/>
    <path style="fill:none;stroke:#ffffff;stroke-width:0.264583px;stroke-linecap:butt;stroke-linejoin:miter;stroke-opacity:1" d="m 87.49217,151.34928 c -0.02005,0.48517 -0.01756,0.97188 -0.0685,1.45526 -0.0705,0.66907 -0.235551,1.32347 -0.415557,1.97025 -0.210015,0.75461 -0.446525,1.50364 -0.592825,2.27419 -0.08135,0.42847 -0.05124,0.87152 -0.133403,1.30037 -0.0017,0.009 0.006,0.0223 0.01427,0.0111 0.02805,-0.0384 0.04503,-0.0835 0.06481,-0.12644 0.03142,-0.0682 0.05952,-0.13845 0.09957,-0.20222 0,0 0.0033,-0.005 0.0033,-0.005" id="path3164" inkscape:path-effect="#path-effect3166" inkscape:original-d="m 87.49217,151.34928 c -0.01736,0.42521 -0.01913,0.85136 -0.05208,1.27565 -0.148844,1.9163 -1.158531,3.81682 -1.158531,5.71443 0,0.12055 0.113105,-0.21365 0.182243,-0.31241"/>
    <path style="fill:none;stroke:#ffffff;stroke-width:0.264583px;stroke-linecap:butt;stroke-linejoin:miter;stroke-opacity:1" d="m 91.644663,153.83551 c -0.249555,0.0516 -0.495539,0.11907 -0.740484,0.18895 -0.633998,0.18087 -1.26308,0.37905 -1.886517,0.59341 -0.439194,0.15101 -0.857421,0.36466 -1.306097,0.4851 -0.02395,0.006 -0.04273,0.0248 -0.07133,0.0101 -0.271298,-0.13951 -0.549185,-0.26566 -0.825799,-0.39413 -0.729228,-0.33869 -1.460433,-0.67645 -2.159496,-1.07469 -0.339195,-0.19323 -0.676292,-0.39446 -0.980298,-0.6403 -0.160474,-0.12977 -0.318308,-0.26883 -0.433572,-0.4415 -0.03326,-0.0498 -0.06254,-0.10262 -0.08365,-0.15879" id="path3168" inkscape:path-effect="#path-effect3170" inkscape:original-d="m 91.644663,153.83551 c -0.702323,0.14046 -2.931094,0.84021 -3.98327,1.28866 -0.884201,-0.46744 -4.147844,-1.77084 -4.503971,-2.72052"/>
    <path style="fill:none;stroke:#ffffff;stroke-width:0.264583px;stroke-linecap:butt;stroke-linejoin:miter;stroke-opacity:1" d="m 83.105344,162.72605 c 0.562235,-0.59855 1.147641,-1.17574 1.686121,-1.79631 0.451711,-0.52057 0.872958,-1.07223 1.205318,-1.6776 0.104759,-0.19081 0.116186,-0.72509 0.284778,-0.58736 0.288213,0.23545 0.536145,0.52072 0.724275,0.84229 0.195382,0.33397 0.322351,0.70344 0.410736,1.07888 0.13858,0.58866 0.194109,1.1927 0.319179,1.78403 0.05443,0.25733 0.122003,0.51229 0.212023,0.7596" id="path3172" inkscape:path-effect="#path-effect3174" inkscape:original-d="m 83.105344,162.72605 c 1.116132,-1.19049 2.500241,-2.45324 3.176217,-4.06127 1.481341,1.21569 1.09603,2.89709 1.666213,4.4648"/>
  </g>
  </svg>